<?xml version="1.0" encoding="UTF-8"?><svg width="16px" height="16px" viewBox="0 0 16 16" version="1.1" xmlns="http://www.w3.org/2000/svg" xmlns:xlink="http://www.w3.org/1999/xlink"><title>CBC2061D-FEB0-4C0F-984F-2B30E2CA9BE7</title><g id="Settings-&amp;-Information" stroke="none" stroke-width="1" fill="none" fill-rule="evenodd"><g id="Settings&amp;Information/Account/16" fill="#00095B"><path d="M9.65038807,8.5393633 C11.7769882,8.5393633 13.5,10.2261626 13.5,12.3069826 L13.5,15 L2.5,15 L2.5,12.3069826 C2.5,10.2261626 4.22412055,8.5393633 6.34961193,8.5393633 L9.65038807,8.5393633 Z M9.65038807,9.61505063 L6.35072069,9.61505063 C4.83393811,9.61505063 3.59988912,10.8231636 3.59988912,12.308068 L3.59988912,13.9232272 L12.4001109,13.9232272 L12.4001109,12.308068 C12.4001109,10.8231636 11.1660619,9.61505063 9.65038807,9.61505063 Z M7.99966737,1 C9.82357625,1 11.3004435,2.44691343 11.3004435,4.23140381 C11.3004435,6.01589418 9.82357625,7.46172215 7.99966737,7.46172215 C6.17686725,7.46172215 4.69889124,6.01589418 4.69889124,4.23140381 C4.69889124,2.44691343 6.17686725,1 7.99966737,1 Z M7.99966737,2.07677278 C6.78668481,2.07677278 5.79988912,3.04282901 5.79988912,4.23140381 C5.79988912,5.41889314 6.78668481,6.38494937 7.99966737,6.38494937 C9.21375869,6.38494937 10.2005544,5.41889314 10.2005544,4.23140381 C10.2005544,3.04282901 9.21375869,2.07677278 7.99966737,2.07677278 Z" id="PersonalProfiles"></path></g></g></svg>