<?xml version="1.0" encoding="utf-8"?>
<!-- Generator: Adobe Illustrator 25.0.1, SVG Export Plug-In . SVG Version: 6.00 Build 0)  -->
<svg version="1.1" xmlns="http://www.w3.org/2000/svg" xmlns:xlink="http://www.w3.org/1999/xlink" x="0px" y="0px"
	 viewBox="0 0 233.56 119.63" style="enable-background:new 0 0 233.56 119.63;" xml:space="preserve">
<style type="text/css">
	.st0{fill:none;}
	.st1{fill:#00095B;}
</style>
<g id="positional_box">
	<rect class="st0" width="233.56" height="119.63"/>
</g>
<g id="Ford_Script">
	<path class="st1" d="M209.56,46.08c0.21-0.36-0.01-0.63-0.47-0.63c-2.39,0-5.52,0.01-8,0.01c-0.59,0-0.9,0.07-1.18,0.62
		c-0.92,1.76-12.11,18.53-14.19,21.78c-0.35,0.5-0.78,0.43-0.83-0.14c-0.21-1.93-1.88-4.16-4.51-5.22c-2-0.81-3.97-0.96-6-0.69
		c-3.68,0.49-6.96,2.44-9.84,4.62c-4.34,3.3-8.09,7.58-12.93,10.75c-2.64,1.72-6.26,3.22-8.68,0.98c-2.19-2.03-1.94-6.54,1.41-10.03
		c0.35-0.37,0.78-0.06,0.71,0.27c-0.32,1.58,0.07,3.15,1.27,4.25c1.46,1.31,3.55,1.46,5.34,0.58c2.11-1.05,3.35-3.07,3.72-5.36
		c0.56-3.56-2.18-6.7-5.61-6.95c-2.79-0.2-5.46,0.77-8.06,2.92c-1.3,1.08-2.05,1.88-3.17,3.49c-0.27,0.39-0.7,0.43-0.68-0.15
		c0.13-4.56-1.75-7.12-5.52-7.21c-2.92-0.07-6.05,1.52-8.48,3.46c-2.67,2.14-5,4.99-7.5,7.66c-0.31,0.33-0.58,0.31-0.67-0.33
		c-0.08-3.02-0.83-5.94-2.23-8.02c-0.49-0.72-1.53-1.08-2.41-0.59c-0.4,0.22-1.81,0.87-2.83,1.69c-0.51,0.42-0.7,1.02-0.48,1.8
		c1.35,4.51,1.05,9.64-0.78,13.97c-1.68,3.97-4.95,7.55-8.79,8.76c-2.53,0.8-5.16,0.41-6.79-1.83c-2.23-3.09-1.33-8.48,2-12.94
		c2.94-3.93,7.19-6.43,11.43-8.04c0.5-0.19,0.6-0.51,0.46-0.94c-0.23-0.7-0.6-1.65-0.75-2.08c-0.39-1.03-1.48-1.2-2.81-1.06
		c-3.08,0.36-5.86,1.41-8.61,2.88c-7.19,3.85-10.79,11.3-12.37,15.29c-0.76,1.92-1.41,3.11-2.25,4.17
		c-1.13,1.42-2.56,2.72-5.16,5.01c-0.24,0.21-0.41,0.65-0.21,1.05c0.27,0.55,1.62,2.46,2,2.63c0.42,0.21,0.92-0.08,1.11-0.22
		c1.82-1.23,4-3.19,5.07-4.52c0.37-0.45,0.76-0.26,0.96,0.43c1,3.55,3.6,6.45,7.2,7.66c6.59,2.22,13.43-1,18.59-6.6
		c3.28-3.56,4.46-5.85,5.72-7.41c2.13-2.64,6.33-8.55,11.34-12.34c1.84-1.4,4.01-2.46,5.1-1.76c0.88,0.57,1.16,1.89-0.25,4.45
		c-5.1,9.32-12.61,20.27-13.99,22.93c-0.25,0.46-0.03,0.82,0.45,0.82c2.67-0.01,5.32-0.01,7.74-0.01c0.4-0.02,0.58-0.2,0.79-0.49
		c3.92-6.13,7.6-11.97,11.55-18c0.22-0.36,0.42-0.08,0.43,0.08c0.08,1.4,0.43,3.32,1.26,4.57c1.49,2.32,3.61,3.32,5.96,3.34
		c1.87,0.02,2.81-0.26,4.83-1.01c1.64-0.61,2.96-1.41,3.96-2.13c0.59-0.41,0.69,0.28,0.68,0.38c-0.91,4.87,0.21,10.63,5.05,13.03
		c5.79,2.85,12.15-1.16,15.81-4.78c0.36-0.35,0.74-0.31,0.78,0.44c0.08,1.38,0.7,3.02,1.85,4.17c3.07,3.08,9.25,1.86,15.46-2.95
		c3.99-3.08,8.16-7.43,11.93-12.03c0.14-0.18,0.24-0.46-0.03-0.75c-0.57-0.6-1.4-1.29-1.97-1.82c-0.26-0.22-0.64-0.16-0.86,0.01
		c-3.86,3.67-7.34,7.86-12.37,11.33c-1.69,1.18-4.4,2.14-5.61,0.5c-0.47-0.64-0.42-1.52,0.05-2.68
		C185.15,83.49,208.36,48.17,209.56,46.08z M178.89,75.7c0.05,0.27,0.4,0.53,0.75,0.66c0.12,0.04,0.19,0.13,0.05,0.42
		c-0.99,2.11-1.89,3.33-3.13,5.17c-1.14,1.7-2.42,3.02-3.97,4.29c-2.34,1.94-5.59,4.04-8.28,2.63c-1.19-0.62-1.71-2.29-1.69-3.64
		c0.06-3.8,1.75-7.71,4.87-11.54c3.81-4.69,8.02-7.12,10.78-5.79c2.86,1.36,1.95,4.67,0.67,7.27
		C178.85,75.37,178.84,75.54,178.89,75.7z"/>
	<path class="st1" d="M41.27,95.81C32.62,95.87,25,90.53,24.13,81.27c-0.49-5.13,0.96-9.7,3.87-13.46
		c2.57-3.35,6.93-6.14,10.62-6.82c1.2-0.22,2.81-0.08,3.48,0.71c1.05,1.22,0.74,2.55-0.3,3.09c-2.81,1.44-6.2,3.9-7.87,7.25
		c-1.36,2.74-1.63,6.05,0.44,9.19c3.47,5.25,13.16,5.39,22.16-2.98c2.23-2.05,4.22-4.01,6.25-6.34c3.97-4.53,5.28-6.19,10.56-13.5
		c0.06-0.08,0.08-0.2,0.05-0.25c-0.04-0.09-0.12-0.12-0.27-0.13c-3.52,0.1-6.59,1.15-9.57,3.38c-0.86,0.63-2.09,0.54-2.64-0.29
		c-0.6-0.93-0.17-2.15,0.82-2.83c4.8-3.34,10.04-3.94,15.39-4.84c0,0,0.37,0.02,0.68-0.39c2.2-2.82,3.86-5.36,6.2-8.21
		c2.36-2.89,5.41-5.55,7.74-7.54c3.25-2.8,5.33-3.74,7.45-4.89c0.56-0.29-0.07-0.64-0.24-0.64c-11.83-2.22-24.12-5.1-35.87-0.75
		c-8.13,3.04-11.7,9.49-9.98,13.8c1.22,3.06,5.24,3.55,9.01,1.71c3.13-1.53,6.02-4,8.07-7.18c1.15-1.76,3.57-0.49,2.26,2.57
		c-3.44,8.08-10.01,14.49-18.01,14.76c-6.81,0.22-11.2-4.79-11.19-10.97c0.03-12.19,13.6-20.21,27.85-21.42
		c17.17-1.42,33.43,3.15,50.48,5.22c13.06,1.58,25.59,1.62,38.71-1.4c1.55-0.34,2.64,0.65,2.54,2.22c-0.13,2.27-1.88,4.45-6.21,6.81
		c-4.92,2.7-10.06,3.51-15.44,3.56c-12.99,0.11-25.1-4.96-37.62-7.68c0.02,0.55,0.16,1.2-0.3,1.55C96.32,39.7,90.05,44.9,85.85,52.2
		c-0.14,0.17-0.06,0.33,0.18,0.31c3.65-0.19,6.93-0.29,10.33-0.56c0.59-0.05,0.62-0.2,0.56-0.63c-0.3-2.52,0.43-5.38,2.65-7.36
		c2.26-2.03,5.1-2.26,6.98-0.8c2.14,1.67,1.95,4.66,0.78,6.91c-1.19,2.28-3.15,3.5-5.04,4.09c0,0-0.39,0.09-0.34,0.45
		c0.08,0.58,2.65,2,2.87,2.38c0.21,0.36,0.1,0.92-0.29,1.35c-0.27,0.31-0.7,0.6-1.24,0.59c-0.44-0.01-0.71-0.16-1.27-0.47
		c-1.15-0.63-2.59-1.65-3.56-2.86c-0.33-0.41-0.49-0.42-1.31-0.37c-3.68,0.21-9.43,0.77-13.32,1.25c-0.94,0.12-1.08,0.29-1.28,0.62
		c-6.21,10.23-12.83,21.27-20.1,28.65C54.65,93.67,48.16,95.76,41.27,95.81z M100.41,50.34c0.1,0.53,0.3,0.63,0.54,0.58
		c1.18-0.24,2.48-1.21,3.24-2.33c0.7-1.02,1.03-2.5,0.33-3.09c-0.62-0.53-1.62-0.38-2.37,0.28
		C100.67,47.09,100.21,48.96,100.41,50.34z"/>
</g>
</svg>
