<svg width="16" height="16" viewBox="0 0 16 16" fill="none" xmlns="http://www.w3.org/2000/svg">
<path fill-rule="evenodd" clip-rule="evenodd" d="M9.93068 14.5635C11.1688 12.7631 11.8395 10.6816 11.9427 8.57129H14.7572C14.5222 11.4119 12.5606 13.7652 9.93068 14.5635ZM1.16499 8.57129H3.98066C4.08269 10.6816 4.75336 12.7631 5.99152 14.5635C3.36272 13.7652 1.40116 11.4119 1.16499 8.57129ZM5.99152 1.43644C4.75336 3.23687 4.08269 5.31837 3.98066 7.42867H1.16499C1.40116 4.58806 3.36272 2.23471 5.99152 1.43644ZM8.53099 7.42851V1.46048C9.93539 3.19871 10.6932 5.29633 10.809 7.42851H8.53099ZM8.53099 8.57129H10.809C10.6932 10.7035 9.93424 12.8011 8.53099 14.5393V8.57129ZM7.39204 8.57129V14.5393C5.98879 12.8011 5.22985 10.7035 5.1152 8.57129H7.39204ZM7.39204 7.42851H5.1152C5.22985 5.29633 5.98879 3.19871 7.39204 1.46048V7.42851ZM14.7584 7.42867H11.9438C11.8407 5.31837 11.17 3.23687 9.93068 1.43644C12.5618 2.23471 14.5233 4.58806 14.7584 7.42867ZM7.96207 0C3.5643 0 0 3.58128 0 8C0 12.4187 3.5643 16 7.96207 16C12.3598 16 15.9253 12.4187 15.9253 8C15.9253 3.58128 12.3598 0 7.96207 0Z" fill="#00095B"/>
</svg>
