<svg width="24" height="24" viewBox="0 0 24 24" fill="none" xmlns="http://www.w3.org/2000/svg">
<g id="GeneralSystems/Search/24">
<path id="Search" fill-rule="evenodd" clip-rule="evenodd" d="M2.57074 9.64319C2.57074 5.74357 5.74337 2.57098 9.64303 2.57098C13.5427 2.57098 16.7153 5.74357 16.7153 9.64319C16.7153 13.5412 13.5427 16.7138 9.64303 16.7138C5.74337 16.7138 2.57074 13.5412 2.57074 9.64319ZM22.7707 22.7707C23.0764 22.4634 23.0764 21.9661 22.7707 21.6588L16.2829 15.1727C17.7132 13.4573 18.4925 11.1828 18.2391 8.72293C17.8304 4.78689 14.6926 1.56519 10.766 1.07101C5.11138 0.358242 0.359561 5.11317 1.07075 10.7662C1.56494 14.6927 4.78509 17.8305 8.72276 18.2375C11.1826 18.4926 13.4572 17.7133 15.1726 16.283L21.6588 22.7707C21.9661 23.0764 22.4634 23.0764 22.7707 22.7707Z" fill="#00095b"/>
</g>
</svg>
